<?xml version="1.0" encoding="UTF-8"?>
<svg width="36px" height="36px" viewBox="0 0 36 36" version="1.1" xmlns="http://www.w3.org/2000/svg" xmlns:xlink="http://www.w3.org/1999/xlink">
    <!-- Generator: Sketch 50.2 (55047) - http://www.bohemiancoding.com/sketch -->
    <title>Symbol-White-on-Dark</title>
    <desc>Created with Sketch.</desc>
    <defs></defs>
    <g id="#Brand-design" stroke="none" stroke-width="1" fill="none" fill-rule="evenodd">
        <g id="Logo-prismic" transform="translate(-619.000000, -538.000000)" fill="#FFFFFF">
            <path d="M654.615901,556.740901 L651.954505,554.079505 C651.743526,553.868526 651.625,553.582378 651.625,553.28401 L651.625,550.028113 C651.625,547.019237 651.311714,545.928146 650.723427,544.828146 C650.135141,543.728146 649.271854,542.864859 648.171854,542.276573 C647.071854,541.688286 645.980763,541.375 642.971887,541.375 L638.668198,541.375 C638.543934,541.375 638.443198,541.274264 638.443198,541.15 C638.443198,541.090326 638.466903,541.033097 638.509099,540.990901 L641.170495,538.329505 C641.381474,538.118526 641.667622,538 641.96599,538 L643.462517,538 C647.474351,538 648.929139,538.417715 650.395806,539.202097 C651.862472,539.986479 653.013521,541.137528 653.797903,542.604194 C654.582285,544.070861 655,545.525649 655,549.537483 L655,556.581802 C655,556.706066 654.899264,556.806802 654.775,556.806802 C654.715326,556.806802 654.658097,556.783097 654.615901,556.740901 Z M636.259099,573.615901 L638.920495,570.954505 C639.131474,570.743526 639.417622,570.625 639.71599,570.625 L642.971887,570.625 C645.980763,570.625 647.071854,570.311714 648.171854,569.723427 C649.271854,569.135141 650.135141,568.271854 650.723427,567.171854 C651.311714,566.071854 651.625,564.980763 651.625,561.971887 L651.625,557.668198 C651.625,557.543934 651.725736,557.443198 651.85,557.443198 C651.909674,557.443198 651.966903,557.466903 652.009099,557.509099 L654.670495,560.170495 C654.881474,560.381474 655,560.667622 655,560.96599 L655,562.462517 C655,566.474351 654.582285,567.929139 653.797903,569.395806 C653.013521,570.862472 651.862472,572.013521 650.395806,572.797903 C648.929139,573.582285 647.474351,574 643.462517,574 L636.418198,574 C636.293934,574 636.193198,573.899264 636.193198,573.775 C636.193198,573.715326 636.216903,573.658097 636.259099,573.615901 Z M619.384099,555.259099 L622.045495,557.920495 C622.256474,558.131474 622.375,558.417622 622.375,558.71599 L622.375,561.971887 C622.375,564.980763 622.688286,566.071854 623.276573,567.171854 C623.864859,568.271854 624.728146,569.135141 625.828146,569.723427 C626.928146,570.311714 628.019237,570.625 631.028113,570.625 L635.331802,570.625 C635.456066,570.625 635.556802,570.725736 635.556802,570.85 C635.556802,570.909674 635.533097,570.966903 635.490901,571.009099 L632.829505,573.670495 C632.618526,573.881474 632.332378,574 632.03401,574 L630.537483,574 C626.525649,574 625.070861,573.582285 623.604194,572.797903 C622.137528,572.013521 620.986479,570.862472 620.202097,569.395806 C619.417715,567.929139 619,566.474351 619,562.462517 L619,555.418198 C619,555.293934 619.100736,555.193198 619.225,555.193198 C619.284674,555.193198 619.341903,555.216903 619.384099,555.259099 Z M637.740901,538.384099 L635.079505,541.045495 C634.868526,541.256474 634.582378,541.375 634.28401,541.375 L631.028113,541.375 C628.019237,541.375 626.928146,541.688286 625.828146,542.276573 C624.728146,542.864859 623.864859,543.728146 623.276573,544.828146 C622.688286,545.928146 622.375,547.019237 622.375,550.028113 L622.375,554.331802 C622.375,554.456066 622.274264,554.556802 622.15,554.556802 C622.090326,554.556802 622.033097,554.533097 621.990901,554.490901 L619.329505,551.829505 C619.118526,551.618526 619,551.332378 619,551.03401 L619,549.537483 C619,545.525649 619.417715,544.070861 620.202097,542.604194 C620.986479,541.137528 622.137528,539.986479 623.604194,539.202097 C625.070861,538.417715 626.525649,538 630.537483,538 L637.581802,538 C637.706066,538 637.806802,538.100736 637.806802,538.225 C637.806802,538.284674 637.783097,538.341903 637.740901,538.384099 Z M648.994543,551.136389 L645.365504,547.668036 C645.125527,547.42806 644.84483,547.253623 644.545654,547.144727 C644.298289,547.05119 644.030122,547 643.75,547 L633.04068,547 C632.916416,547 632.81568,546.899264 632.81568,546.775 C632.81568,546.715293 632.839412,546.658035 632.881648,546.615834 L635.545553,543.95417 C635.756504,543.743397 636.042508,543.625 636.340713,543.625 L644.875,543.625 C647.360281,543.625 649.375,545.639719 649.375,548.125 L649.375,550.973729 C649.375,551.097993 649.274264,551.198729 649.15,551.198729 C649.092089,551.198729 649.036408,551.1764 648.994543,551.136389 Z M641.863611,567.997384 L645.331964,564.368344 C645.57194,564.128368 645.746377,563.847671 645.855273,563.548495 C645.94881,563.30113 646,563.032963 646,562.752841 L646,552.043521 C646,551.919257 646.100736,551.818521 646.225,551.818521 C646.284707,551.818521 646.341965,551.842253 646.384166,551.884489 L649.04583,554.548394 C649.256603,554.759345 649.375,555.045349 649.375,555.343554 L649.375,563.877841 C649.375,566.363122 647.360281,568.377841 644.875,568.377841 L642.026271,568.377841 C641.902007,568.377841 641.801271,568.277105 641.801271,568.152841 C641.801271,568.09493 641.8236,568.039249 641.863611,567.997384 Z M625.005457,560.863611 L628.634496,564.331964 C628.874473,564.57194 629.15517,564.746377 629.454346,564.855273 C629.701711,564.94881 629.969878,565 630.25,565 L640.95932,565 C641.083584,565 641.18432,565.100736 641.18432,565.225 C641.18432,565.284707 641.160588,565.341965 641.118352,565.384166 L638.454447,568.04583 C638.243496,568.256603 637.957492,568.375 637.659287,568.375 L629.125,568.375 C626.639719,568.375 624.625,566.360281 624.625,563.875 L624.625,561.026271 C624.625,560.902007 624.725736,560.801271 624.85,560.801271 C624.907911,560.801271 624.963592,560.8236 625.005457,560.863611 Z M632.136389,544.005457 L628.668036,547.634496 C628.42806,547.874473 628.253623,548.15517 628.144727,548.454346 C628.05119,548.701711 628,548.969878 628,549.25 L628,559.95932 C628,560.083584 627.899264,560.18432 627.775,560.18432 C627.715293,560.18432 627.658035,560.160588 627.615834,560.118352 L624.95417,557.454447 C624.743397,557.243496 624.625,556.957492 624.625,556.659287 L624.625,548.125 C624.625,545.639719 626.639719,543.625 629.125,543.625 L631.973729,543.625 C632.097993,543.625 632.198729,543.725736 632.198729,543.85 C632.198729,543.907911 632.1764,543.963592 632.136389,544.005457 Z" id="Symbol-White-on-Dark"></path>
        </g>
    </g>
</svg>